<svg xmlns="http://www.w3.org/2000/svg" width="43" height="34" viewBox="0 0 43 34" fill="none"><path d="M42.0404 0C42.0485 5.54974 40.11 10.3547 36.3027 14.3695C32.4927 18.387 27.747 20.5172 22.213 20.9096C24.0496 21.0725 25.7656 21.6224 27.3582 22.514C28.6827 23.2561 29.8383 24.2117 30.833 25.3676C31.5543 26.2058 32.1629 27.1107 32.6616 28.0931C33.2595 29.2676 33.6456 30.5169 33.8548 31.8116C33.9432 32.3615 34.0129 32.9221 34.0049 33.4853C34.0022 33.7416 33.954 33.8377 33.6751 33.827C32.7072 33.795 31.75 33.6748 30.8143 33.4346C29.3772 33.0635 28.0392 32.4656 26.8032 31.6487C26.1195 31.1976 25.4733 30.6878 24.9049 30.1058C23.6072 28.7818 22.5562 27.2896 21.8939 25.5384C21.4676 24.4066 21.2183 23.24 21.0574 22.0468C21.0547 22.0201 21.036 21.9961 21.0333 21.9881C20.8027 24.5107 19.9233 26.7904 18.3494 28.8005C17.049 30.4635 15.443 31.7609 13.5179 32.6444C12.3516 33.1783 11.1316 33.5494 9.84733 33.7015C9.37276 33.7576 8.8982 33.8137 8.41826 33.8297C8.16355 33.8377 8.12333 33.7469 8.12333 33.52C8.10724 31.9637 8.4558 30.4822 9.02153 29.0487C9.61407 27.5512 10.4721 26.2218 11.5713 25.0339C13.0031 23.491 14.703 22.3752 16.6737 21.6464C17.7193 21.2593 18.7972 21.0164 19.9125 20.915C14.3786 20.5119 9.63552 18.3897 5.80678 14.3722C1.97803 10.352 0.119961 5.52572 0.0234375 0.00533886H1.31041C1.38012 0.106777 1.48737 0.0694052 1.57585 0.0613969C1.92977 0.0293637 2.28368 0.0960994 2.62688 0.144149C3.58675 0.28029 4.54393 0.453803 5.48503 0.70206C7.53883 1.24128 9.45588 2.07949 11.2496 3.20331C12.7672 4.15363 14.1265 5.29081 15.3626 6.58281C15.9363 7.18343 16.4779 7.80808 16.9713 8.4701C17.9311 9.7621 18.7275 11.1555 19.3709 12.6317C20.304 14.7806 20.8536 17.0229 21.0306 19.4041C21.0681 19.2332 21.1137 19.1051 21.1218 18.9743C21.1727 17.9492 21.3711 16.9455 21.6151 15.9525C22.0709 14.0919 22.7707 12.3248 23.7172 10.6537C24.6341 9.03335 25.7602 7.57317 27.0579 6.24112C27.6129 5.66987 28.2216 5.15734 28.8356 4.65015C29.967 3.71318 31.1977 2.92836 32.5008 2.26368C33.8387 1.5803 35.2436 1.04108 36.7076 0.672696C37.7237 0.416431 38.7479 0.226901 39.7909 0.114785C40.1314 0.0774134 40.488 0.13881 40.8178 0.00266943H42.0404V0Z" fill="white"></path></svg>